<svg height='300px' width='300px'  fill="#c79fea" xmlns="http://www.w3.org/2000/svg" xmlns:xlink="http://www.w3.org/1999/xlink" version="1.1" x="0px" y="0px" viewBox="0 0 16 16" style="enable-background:new 0 0 16 16;" xml:space="preserve"><title>Noun_Project</title><g><path d="M12,0H4C1.8,0,0,1.8,0,4v8c0,2.2,1.8,4,4,4h8c2.2,0,4-1.8,4-4V4C16,1.8,14.2,0,12,0z M15,12c0,1.7-1.3,3-3,3H4   c-1.7,0-3-1.3-3-3V4c0-1.7,1.3-3,3-3h8c1.7,0,3,1.3,3,3V12z"></path><path d="M10.3,7.3H8.7V5.7C8.7,5.3,8.4,5,8,5S7.3,5.3,7.3,5.7v1.6H5.7C5.3,7.3,5,7.6,5,8s0.3,0.7,0.7,0.7h1.6v1.6   C7.3,10.7,7.6,11,8,11s0.7-0.3,0.7-0.7V8.7h1.6C10.7,8.7,11,8.4,11,8S10.7,7.3,10.3,7.3z"></path></g></svg>