<svg height='300px' width='300px'  fill="#b1e667" xmlns="http://www.w3.org/2000/svg" xmlns:xlink="http://www.w3.org/1999/xlink" version="1.1" x="0px" y="0px" viewBox="0 0 32 32" enable-background="new 0 0 32 32" xml:space="preserve"><g><path d="M30,10.367V4c0-1.105-0.895-2-2-2H4C2.895,2,2,2.895,2,4v24c0,1.104,0.895,2,2,2h24c1.105,0,2-0.896,2-2v-6.367   c-2.324-0.828-4-3.025-4-5.633C26,13.391,27.676,11.193,30,10.367z M20,10v2v8c0,1.104-1.344,2-3,2c-1.656,0-3-0.896-3-2   c0-1.105,1.344-2,3-2c0.352,0,0.686,0.047,1,0.123V12.4L12,13.6V22c0,1.104-1.344,2-3,2c-1.656,0-3-0.896-3-2c0-1.105,1.344-2,3-2   c0.352,0,0.686,0.047,1,0.123V14v-2v-2l10-2V10z"></path></g></svg>