<svg height='300px' width='300px'  fill="#150721" xmlns:dc="http://purl.org/dc/elements/1.1/" xmlns:cc="http://creativecommons.org/ns#" xmlns:rdf="http://www.w3.org/1999/02/22-rdf-syntax-ns#" xmlns:svg="http://www.w3.org/2000/svg" xmlns="http://www.w3.org/2000/svg" xmlns:sodipodi="http://sodipodi.sourceforge.net/DTD/sodipodi-0.dtd" xmlns:inkscape="http://www.inkscape.org/namespaces/inkscape" version="1.1" x="0px" y="0px" viewBox="0 0 100 100"><g transform="translate(0,-952.36218)"><path style="font-size:medium;font-style:normal;font-variant:normal;font-weight:normal;font-stretch:normal;text-indent:0;text-align:start;text-decoration:none;line-height:normal;letter-spacing:normal;word-spacing:normal;text-transform:none;direction:ltr;block-progression:tb;writing-mode:lr-tb;text-anchor:start;baseline-shift:baseline;opacity:1;color:#000000;fill:#150721;fill-opacity:1;stroke:none;stroke-width:6;marker:none;visibility:visible;display:inline;overflow:visible;enable-background:accumulate;font-family:Sans;-inkscape-font-specification:Sans" d="M 76.5 5 C 70.236914 4.955 63.722755 7.62098 58.65625 12.6875 C 53.209834 18.13389 50.410635 25.06521 50.96875 31.8125 L 15.1875 69.9375 A 3.0065034 3.0065034 0 1 0 19.5625 74.0625 L 54.09375 37.3125 L 62.6875 45.90625 L 18.0625 87.8125 L 10.125 79.875 A 3.0052038 3.0052038 0 1 0 5.875 84.125 L 15.875 94.125 A 3.0003 3.0003 0 0 0 20.0625 94.1875 L 68.1875 49.03125 C 74.934799 49.58935 81.866098 46.79012 87.3125 41.34375 C 96.321402 32.3348 97.79631 18.4213 89.6875 10.3125 C 86.140202 6.76521 81.371351 5.03498 76.5 5 z M 76.4375 11 C 79.942279 11.0252 83.088628 12.21363 85.4375 14.5625 C 90.80565 19.93064 90.151078 30.00514 83.0625 37.09375 C 78.5792 41.577025 73.200636 43.622916 68.4375 43.15625 C 68.4271 43.155231 68.416644 43.157293 68.40625 43.15625 L 56.84375 31.59375 L 56.84375 31.5625 C 56.433685 27.377219 57.987083 22.734516 61.40625 18.625 L 73.875 31.09375 A 3.0003 3.0003 0 1 0 78.125 26.875 L 65.78125 14.53125 C 69.165678 12.159481 72.959042 10.975028 76.4375 11 z M 52.65625 43.96875 A 3.0003 3.0003 0 0 0 50.875 44.875 L 42.875 52.875 A 3.0003 3.0003 0 1 0 47.125 57.09375 L 55.125 49.09375 A 3.0003 3.0003 0 0 0 52.65625 43.96875 z " transform="translate(0,952.36218)"></path></g></svg>