<svg id="SvgjsSvg1011" width="288" height="288" xmlns="http://www.w3.org/2000/svg" version="1.1" xmlns:xlink="http://www.w3.org/1999/xlink" xmlns:svgjs="http://svgjs.com/svgjs"><defs id="SvgjsDefs1012"></defs><g id="SvgjsG1013"><svg xmlns="http://www.w3.org/2000/svg" width="288" height="288" fill="#b1e667" enable-background="new 0 0 22.997 27.239" viewBox="0 0 22.997 27.239"><path d="M19.411 11.365l2.121-2.122c1.952-1.952 1.953-5.118 0-7.071l-.707-.707c-1.953-1.953-5.119-1.952-7.071 0l-2.121 2.121c-.242.242-.454.504-.636.779l7.635 7.636C18.907 11.818 19.169 11.607 19.411 11.365zM2.439 21.263l1.414 1.414 11.173-9.93c.893.153 1.817.066 2.672-.267l-7.182-7.182c-.334.853-.42 1.777-.267 2.671l-9.93 11.173 1.413 1.414-.707.708C.364 21.925 0 22.804 0 23.738c0 .936.364 1.814 1.025 2.475.662.662 1.541 1.026 2.476 1.026s1.813-.364 2.474-1.026l6.364-6.363c.945-.945 2.592-.943 3.535 0 .473.473.732 1.1.732 1.768s-.26 1.296-.732 1.768l-1.414 1.414.707.707 1.414-1.414c.661-.66 1.025-1.539 1.025-2.475 0-.935-.364-1.813-1.025-2.475-1.318-1.321-3.625-1.322-4.949 0l-6.364 6.363c-.944.946-2.591.944-3.535 0C1.26 25.034 1 24.406 1 23.738c0-.667.26-1.295.732-1.767L2.439 21.263zM10.219 12.072l.707.707L8.804 14.9l-.707-.707L10.219 12.072zM7.39 14.9l.707.707L7.39 16.314l-.707-.707L7.39 14.9z" fill="#150721" class="color000 svgShape"></path></svg></g></svg>