<svg height='300px' width='300px'  fill="#b1e667" xmlns="http://www.w3.org/2000/svg" xmlns:xlink="http://www.w3.org/1999/xlink" version="1.1" x="0px" y="0px" viewBox="0 0 22.997 27.239" style="enable-background:new 0 0 22.997 27.239;" xml:space="preserve"><g><path d="M19.411,11.365l2.121-2.122c1.952-1.952,1.953-5.118,0-7.071l-0.707-0.707c-1.953-1.953-5.119-1.952-7.071,0l-2.121,2.121   c-0.242,0.242-0.454,0.504-0.636,0.779l7.635,7.636C18.907,11.818,19.169,11.607,19.411,11.365z"></path><path d="M2.439,21.263l1.414,1.414l11.173-9.93c0.893,0.153,1.817,0.066,2.672-0.267l-7.182-7.182   c-0.334,0.853-0.42,1.777-0.267,2.671l-9.93,11.173l1.413,1.414l-0.707,0.708C0.364,21.925,0,22.804,0,23.738   c0,0.936,0.364,1.814,1.025,2.475c0.662,0.662,1.541,1.026,2.476,1.026s1.813-0.364,2.474-1.026l6.364-6.363   c0.945-0.945,2.592-0.943,3.535,0c0.473,0.473,0.732,1.1,0.732,1.768s-0.26,1.296-0.732,1.768l-1.414,1.414l0.707,0.707   l1.414-1.414c0.661-0.66,1.025-1.539,1.025-2.475c0-0.935-0.364-1.813-1.025-2.475c-1.318-1.321-3.625-1.322-4.949,0l-6.364,6.363   c-0.944,0.946-2.591,0.944-3.535,0C1.26,25.034,1,24.406,1,23.738c0-0.667,0.26-1.295,0.732-1.767L2.439,21.263z M10.219,12.072   l0.707,0.707L8.804,14.9l-0.707-0.707L10.219,12.072z M7.39,14.9l0.707,0.707L7.39,16.314l-0.707-0.707L7.39,14.9z"></path></g></svg>