<svg height='300px' width='300px'  fill="#b1e667" xmlns="http://www.w3.org/2000/svg" viewBox="0 0 64 64" x="0px" y="0px"><title>love, likes, romance, wedding</title><g><path d="M60.81,17.48c-2.58-7-7.35-10.72-14.6-11.34-6.38-.55-11.67,4-14.21,6.76-2.54-2.72-7.84-7.31-14.21-6.76-7.25.62-12,4.33-14.6,11.34A23.93,23.93,0,0,0,5.88,38.37c6.87,10.56,19.65,17.32,25.44,19.42a2,2,0,0,0,1.36,0c5.79-2.1,18.57-8.86,25.44-19.42A23.93,23.93,0,0,0,60.81,17.48Zm-6,18.71c-6,9.28-17.15,15.38-22.77,17.58-5.62-2.2-16.73-8.3-22.77-17.58A20.16,20.16,0,0,1,7,18.86c2-5.48,5.56-8.25,11.18-8.73a5.48,5.48,0,0,1,.7,0c6.26,0,11.5,7,11.56,7.09a2,2,0,0,0,3.22,0c.06-.07,5.66-7.62,12.26-7,5.62.48,9.17,3.25,11.18,8.73A20.16,20.16,0,0,1,54.77,36.19ZM54.24,19.9a2,2,0,0,1-1.19,2.57,2.09,2.09,0,0,1-.69.12,2,2,0,0,1-1.88-1.31c-1.08-3-2.3-3.93-5.21-4.18a2,2,0,0,1,.35-4C50.11,13.5,52.61,15.47,54.24,19.9Z"></path></g></svg>