<svg id="svg167831" xmlns="http://www.w3.org/2000/svg" viewBox="0 0 735.03 100.21"><defs><style>.cls-1{fill:#b1e667;}</style></defs><path class="cls-1" d="M232.83,178h-7.2v85.81L158.45,178h-6.07v98.8h7.2V191l67.32,85.82h5.93Zm98.44,45.45H267.33v6.35h63.94Zm0-45.45H267.33v6.49h63.94Zm-63.94,92.31v6.49h63.94v-6.49Zm109.67.7a52.48,52.48,0,0,0,26.26,6.49,53.22,53.22,0,0,0,26.25-6.49,47.64,47.64,0,0,0,18.35-17.92,52.13,52.13,0,0,0,0-51.38,48.65,48.65,0,0,0-18.35-17.92,54.77,54.77,0,0,0-26.25-6.5A52.57,52.57,0,0,0,377,184a48,48,0,0,0-18.49,17.92,52.55,52.55,0,0,0,0,51.1A48.39,48.39,0,0,0,377,271.05Zm48.7-5.79a47.69,47.69,0,0,1-45,0,39.85,39.85,0,0,1-15.8-15.52,42.69,42.69,0,0,1-5.79-22.3,42.16,42.16,0,0,1,5.79-22.16,41.16,41.16,0,0,1,15.8-15.67,47.76,47.76,0,0,1,45,0,42.74,42.74,0,0,1,21.59,37.83,44.14,44.14,0,0,1-5.78,22.3A41.82,41.82,0,0,1,425.7,265.26Zm118.54-78.33Q533.67,178,515,178H479.6v6.49H515c10.44,0,18.49,2.4,24.13,7.06s8.33,11.29,8.33,19.76-2.82,15.24-8.33,19.76S525.47,238,515,238H479.6v38.82h7.2V244.52H515c12.42,0,22.16-2.83,29.21-8.75s10.59-14,10.59-24.42-3.53-18.49-10.59-24.42Zm45.16,79.75c6.92,7.34,16.65,10.86,29.22,10.86,12.42,0,22.16-3.52,29.21-10.86s10.45-17.79,10.45-31.76V178h-7.2v56.6c0,12.13-2.82,21.31-8.33,27.24s-13.55,9-24,9-18.63-3-24.14-9-8.33-15.11-8.33-27.24V178H579.1v56.88c0,14,3.38,24.56,10.3,31.76ZM772.32,178h-7.2v85.81L697.93,178h-6.07v98.8h7.2V191l67.33,85.82h5.93Zm63.86,50.1,42.48,48.7h8.75L841,222.92,884.45,178H875.7L814,241.55V178h-7.2v98.8H814v-26Z" transform="translate(-152.38 -177.33)"/></svg>