<svg id="SvgjsSvg1001" width="288" height="288" xmlns="http://www.w3.org/2000/svg" version="1.1" xmlns:xlink="http://www.w3.org/1999/xlink" xmlns:svgjs="http://svgjs.com/svgjs"><defs id="SvgjsDefs1002"></defs><g id="SvgjsG1008" transform="matrix(1,0,0,1,0,0)"><svg xmlns="http://www.w3.org/2000/svg" width="288" height="288" fill="#150721" enable-background="new 0 0 24 24" viewBox="0 0 24 24"><path d="M2.5283 12.8818C2.6758 12.9609 2.8384 13 3 13c.1938 0 .3872-.0566.5547-.168l6-4C9.833 8.6465 10 8.334 10 8S9.833 7.3535 9.5547 7.168l-6-4C3.2471 2.9639 2.8525 2.9434 2.5283 3.1182 2.2031 3.292 2 3.6309 2 4v8C2 12.3691 2.2031 12.708 2.5283 12.8818zM4 5.8682L7.1973 8 4 10.1318V5.8682zM21 7h-9c-.5522 0-1 .4473-1 1s.4478 1 1 1h9c.5522 0 1-.4473 1-1S21.5522 7 21 7zM21 11H10c-.5522 0-1 .4473-1 1s.4478 1 1 1h11c.5522 0 1-.4473 1-1S21.5522 11 21 11zM10 5h11c.5522 0 1-.4473 1-1s-.4478-1-1-1H10C9.4478 3 9 3.4473 9 4S9.4478 5 10 5zM21 15H3c-.5522 0-1 .4473-1 1s.4478 1 1 1h18c.5522 0 1-.4473 1-1S21.5522 15 21 15zM21 19H3c-.5522 0-1 .4473-1 1s.4478 1 1 1h18c.5522 0 1-.4473 1-1S21.5522 19 21 19z" fill="#b1e667" class="color000 svgShape"></path></svg></g></svg>