<svg height='300px' width='300px'  fill="#150721" xmlns="http://www.w3.org/2000/svg" xmlns:xlink="http://www.w3.org/1999/xlink" version="1.1" x="0px" y="0px" viewBox="0 0 24 24" enable-background="new 0 0 24 24" xml:space="preserve"><g><g><path d="M2.5283,12.8818C2.6758,12.9609,2.8384,13,3,13c0.1938,0,0.3872-0.0566,0.5547-0.168l6-4C9.833,8.6465,10,8.334,10,8    S9.833,7.3535,9.5547,7.168l-6-4C3.2471,2.9639,2.8525,2.9434,2.5283,3.1182C2.2031,3.292,2,3.6309,2,4v8    C2,12.3691,2.2031,12.708,2.5283,12.8818z M4,5.8682L7.1973,8L4,10.1318V5.8682z"></path><path d="M21,7h-9c-0.5522,0-1,0.4473-1,1s0.4478,1,1,1h9c0.5522,0,1-0.4473,1-1S21.5522,7,21,7z"></path><path d="M21,11H10c-0.5522,0-1,0.4473-1,1s0.4478,1,1,1h11c0.5522,0,1-0.4473,1-1S21.5522,11,21,11z"></path><path d="M10,5h11c0.5522,0,1-0.4473,1-1s-0.4478-1-1-1H10C9.4478,3,9,3.4473,9,4S9.4478,5,10,5z"></path><path d="M21,15H3c-0.5522,0-1,0.4473-1,1s0.4478,1,1,1h18c0.5522,0,1-0.4473,1-1S21.5522,15,21,15z"></path><path d="M21,19H3c-0.5522,0-1,0.4473-1,1s0.4478,1,1,1h18c0.5522,0,1-0.4473,1-1S21.5522,19,21,19z"></path></g></g></svg>