<svg id="SvgjsSvg1001" width="288" height="288" xmlns="http://www.w3.org/2000/svg" version="1.1" xmlns:xlink="http://www.w3.org/1999/xlink" xmlns:svgjs="http://svgjs.com/svgjs"><defs id="SvgjsDefs1002"></defs><g id="SvgjsG1008" transform="matrix(1,0,0,1,0,0)"><svg xmlns="http://www.w3.org/2000/svg" width="288" height="288" fill="#b1e667" enable-background="new 0 0 100 100" viewBox="0 0 100 100"><switch><g fill="#150721" class="color000 svgShape"><path d="M5273.1,2400.1v-2c0-2.8-5-4-9.7-4s-9.7,1.3-9.7,4v2c0,1.8,0.7,3.6,2,4.9l5,4.9c0.3,0.3,0.4,0.6,0.4,1v6.4     c0,0.4,0.2,0.7,0.6,0.8l2.9,0.9c0.5,0.1,1-0.2,1-0.8v-7.2c0-0.4,0.2-0.7,0.4-1l5.1-5C5272.4,2403.7,5273.1,2401.9,5273.1,2400.1z      M5263.4,2400c-4.8,0-7.4-1.3-7.5-1.8v0c0.1-0.5,2.7-1.8,7.5-1.8c4.8,0,7.3,1.3,7.5,1.8C5270.7,2398.7,5268.2,2400,5263.4,2400z" fill="#150721" class="color000 svgShape"></path><path d="M5268.4 2410.3c-.6 0-1 .4-1 1 0 .6.4 1 1 1h4.3c.6 0 1-.4 1-1 0-.6-.4-1-1-1H5268.4zM5272.7 2413.7h-4.3c-.6 0-1 .4-1 1 0 .6.4 1 1 1h4.3c.6 0 1-.4 1-1C5273.7 2414.1 5273.3 2413.7 5272.7 2413.7zM5272.7 2417h-4.3c-.6 0-1 .4-1 1 0 .6.4 1 1 1h4.3c.6 0 1-.4 1-1C5273.7 2417.5 5273.3 2417 5272.7 2417z" fill="#150721" class="color000 svgShape"></path><g fill="#150721" class="color000 svgShape"><path d="M37.5,19.9c-9.7,0-17.6,7.9-17.6,17.6c0,2.1,1.7,3.8,3.8,3.8s3.8-1.7,3.8-3.8c0-5.5,4.5-10,10-10c2.1,0,3.8-1.7,3.8-3.8     S39.6,19.9,37.5,19.9z" fill="#150721" class="color000 svgShape"></path><path d="M79.3,68.6c-2.8-2.8-4.9-5.4-6.7-7.4c1.8-3.7-2.4-3.5-4.1-5.2c-0.3-0.3-0.5-0.6-0.7-1c3-5.2,4.7-11.1,4.7-17.5     c0-19.3-15.7-35-35-35s-35,15.7-35,35s15.7,35,35,35c6.3,0,12.3-1.7,17.4-4.7c0.3,0.2,0.7,0.4,1,0.7c1.8,1.8,1.5,5.9,5.2,4.1     c2,1.8,4.6,3.9,7.4,6.7c9.5,9.5,17,24.4,26.1,15.3C103.7,85.6,88.8,78.1,79.3,68.6z M12.3,37.5c0-13.9,11.3-25.2,25.2-25.2     c13.9,0,25.2,11.3,25.2,25.2c0,13.9-11.3,25.2-25.2,25.2C23.6,62.7,12.3,51.4,12.3,37.5z" fill="#150721" class="color000 svgShape"></path></g></g></switch></svg></g></svg>